<svg width="60" height="60" viewBox="0 0 60 60" fill="none" xmlns="http://www.w3.org/2000/svg">
<path fill-rule="evenodd" clip-rule="evenodd" d="M30 60C46.5685 60 60 46.5685 60 30C60 13.4315 46.5685 0 30 0C13.4315 0 0 13.4315 0 30C0 46.5685 13.4315 60 30 60ZM31.0437 27.39C31.3476 27.8621 31.6605 28.312 32.1005 28.9204C32.0673 28.8744 32.6712 29.7055 32.8297 29.9274C34.0566 31.6442 34.5708 32.6944 34.7064 33.96C34.7299 34.2184 34.734 34.4723 34.7182 34.7221C34.6849 35.2469 34.5633 35.7618 34.3446 36.2742C34.2584 36.4762 34.1533 36.6705 34.0298 36.8564C33.6583 37.4161 33.1264 37.8904 32.4804 38.2359C32.2285 38.3706 31.962 38.4841 31.6853 38.5746C29.3825 39.2282 26.7822 38.4894 25.2294 36.7416L22.4542 39.5179C24.994 42.3766 29.0651 43.5255 32.7128 42.4724C33.2597 42.2976 33.7394 42.0946 34.1967 41.8501C35.3879 41.2131 36.4053 40.3059 37.1476 39.1875C37.408 38.7955 37.633 38.3796 37.819 37.9436C38.2262 36.9896 38.4597 36.001 38.5236 34.9933C38.5539 34.5128 38.5457 34.0307 38.5005 33.548C38.3723 32.3261 38.0344 31.2148 37.4991 30.119C37.0857 29.2727 36.5979 28.5023 35.8687 27.4819C35.6993 27.2448 35.0841 26.3982 35.126 26.4561C34.7207 25.8957 34.4431 25.4964 34.1841 25.0933C33.9648 24.7667 33.9171 24.5355 33.981 24.104C34.0017 24.0193 34.032 23.9331 34.0722 23.8456C34.121 23.7401 34.1854 23.6316 34.263 23.5263C34.3688 23.3827 34.497 23.247 34.6424 23.1258C35.6967 22.2997 37.1754 22.4753 40.1692 23.5865L41.4285 19.7663C39.6184 19.0944 38.5693 18.7789 37.3146 18.6325C35.438 18.4137 33.7617 18.7705 32.3448 19.8953C31.9215 20.2429 31.5633 20.6192 31.2577 21.0344C31.0198 21.3574 30.8145 21.7031 30.6465 22.0666C30.4689 22.4526 30.3355 22.8525 30.249 23.2651L30.2312 23.3601C29.99 24.841 30.2291 26.1696 31.0437 27.39ZM28.0332 30.608V20.6505H24.2193L24.2193 34.6552H30.3664L30.3664 30.608H28.0332ZM22.2919 29.6167C22.2919 31.1258 21.1394 32.349 19.7175 32.349C18.2953 32.349 17.1428 31.1258 17.1428 29.6167C17.1428 28.108 18.2953 26.885 19.7175 26.885C21.1394 26.885 22.2919 28.108 22.2919 29.6167Z" fill="white"/>
</svg>
